<svg width="2500" height="1055" viewBox="0 0 256 108" xmlns="http://www.w3.org/2000/svg" preserveAspectRatio="xMinYMin meet"><path d="M104.529 49.53L58.013 3.017a6.86 6.86 0 0 0-9.703 0l-9.659 9.66 12.253 12.252a8.145 8.145 0 0 1 8.383 1.953 8.157 8.157 0 0 1 1.936 8.434L73.03 47.125c2.857-.984 6.154-.347 8.435 1.938a8.161 8.161 0 0 1 0 11.545 8.164 8.164 0 0 1-13.324-8.88L57.129 40.716l-.001 28.98a8.248 8.248 0 0 1 2.159 1.544 8.164 8.164 0 0 1 0 11.547c-3.19 3.19-8.36 3.19-11.545 0a8.164 8.164 0 0 1 2.672-13.328v-29.25a8.064 8.064 0 0 1-2.672-1.782c-2.416-2.413-2.997-5.958-1.759-8.925l-12.078-12.08L2.011 49.314a6.863 6.863 0 0 0 0 9.706l46.516 46.514a6.862 6.862 0 0 0 9.703 0l46.299-46.297a6.866 6.866 0 0 0 0-9.707" fill="#DE4C36"/></svg>